<svg width="30" height="30" viewBox="0 0 30 30" fill="none" xmlns="http://www.w3.org/2000/svg">
<path d="M0 15L3.46154 11.5385L4.61539 12.6923L2.30769 15L6.92308 19.6154L5.76924 20.7692L0 15Z" fill="white"/>
<path d="M4.6154 15L5.76925 13.8462L8.07694 16.1539L9.23079 15L4.6154 10.3846L12.6923 2.30769L13.8462 3.46154L6.9231 10.3846L11.5385 15L8.07694 18.4616L4.6154 15Z" fill="white"/>
<path d="M18.4616 5.76923L19.6154 4.61539L25.3846 10.3846L21.9231 13.8462L17.3077 9.23078L15 11.5385L13.8462 10.3846L17.3077 6.92308L21.9231 11.5385L23.077 10.3846L18.4616 5.76923Z" fill="white"/>
<path d="M16.1538 12.6923L17.3077 11.5385L21.9231 16.1539L26.5385 11.5385L30 15L28.8462 16.1539L26.5385 13.8462L21.9231 18.4616L16.1538 12.6923Z" fill="white"/>
<path d="M13.8461 1.15385L15 -5.16392e-07L18.4615 3.46154L11.5384 10.3846L18.4615 17.3077L17.3077 18.4616L9.23074 10.3846L16.1538 3.46154L13.8461 1.15385Z" fill="white"/>
<path d="M19.6154 20.7692L15 25.3846L11.5385 21.9231L15 18.4616L16.1539 19.6154L13.8462 21.9231L15 23.0769L19.6154 18.4616L21.9231 20.7692L26.5385 16.1539L27.6923 17.3077L21.9231 23.0769L19.6154 20.7692Z" fill="white"/>
<path d="M13.8461 28.8462L6.92305 21.9231L8.0769 20.7692L12.6923 16.1539L13.8461 17.3077L9.23074 21.9231L15 27.6923L19.6154 23.0769L20.7692 24.2308L15 30L13.8461 28.8462Z" fill="white"/>
</svg>
